<svg width="34" height="34" viewBox="0 0 34 34" fill="none" xmlns="http://www.w3.org/2000/svg">
<rect width="34" height="34" rx="17" fill="url(#paint0_angular_3597_19092)"/>
<path fill-rule="evenodd" clip-rule="evenodd" d="M14.875 7.7915C14.875 6.6179 15.8264 5.6665 17 5.6665C18.1736 5.6665 19.125 6.6179 19.125 7.7915C19.125 8.84444 18.3592 9.71851 17.3542 9.88712V11.3332L19.8334 11.3332C23.4005 11.3332 26.4078 13.7303 27.3322 17.0016C27.8905 17.0334 28.3334 17.4961 28.3334 18.0623V20.8957C28.3334 21.4825 27.8577 21.9582 27.2709 21.9582C27.2124 21.9582 27.1551 21.9534 27.0992 21.9444C25.9694 24.8539 23.1422 26.9165 19.8334 26.9165H14.1667C10.8578 26.9165 8.03068 24.8539 6.90081 21.9444C6.84495 21.9534 6.78762 21.9582 6.72919 21.9582C6.14239 21.9582 5.66669 21.4825 5.66669 20.8957V18.0623C5.66669 17.4961 6.10958 17.0334 6.66782 17.0016C7.59223 13.7303 10.5995 11.3332 14.1667 11.3332L16.6459 11.3332V9.88712C15.6408 9.71851 14.875 8.84444 14.875 7.7915ZM14.1667 14.1665C11.4283 14.1665 9.20835 16.3864 9.20835 19.1248C9.20835 21.8633 11.4283 24.0832 14.1667 24.0832H19.8334C22.5718 24.0832 24.7917 21.8633 24.7917 19.1248C24.7917 16.3864 22.5718 14.1665 19.8334 14.1665H14.1667ZM12.0417 19.1248C12.0417 18.3424 12.676 17.7082 13.4584 17.7082C14.2408 17.7082 14.875 18.3424 14.875 19.1248C14.875 19.9072 14.2408 20.5415 13.4584 20.5415C12.676 20.5415 12.0417 19.9072 12.0417 19.1248ZM20.5417 17.7082C19.7593 17.7082 19.125 18.3424 19.125 19.1248C19.125 19.9072 19.7593 20.5415 20.5417 20.5415C21.3241 20.5415 21.9584 19.9072 21.9584 19.1248C21.9584 18.3424 21.3241 17.7082 20.5417 17.7082Z" fill="white"/>
<defs>
<radialGradient id="paint0_angular_3597_19092" cx="0" cy="0" r="1" gradientUnits="userSpaceOnUse" gradientTransform="translate(17 17) rotate(90) scale(17 17)">
<stop offset="0.223958" stop-color="#6210CC"/>
<stop offset="0.489583" stop-color="#6210CC"/>
<stop offset="0.951802" stop-color="#4DCD90"/>
</radialGradient>
</defs>
</svg>
