<svg width="26" height="26" viewBox="0 0 26 26" fill="none" xmlns="http://www.w3.org/2000/svg">
<rect width="26" height="26" rx="13" fill="url(#paint0_angular_3597_19102)"/>
<path fill-rule="evenodd" clip-rule="evenodd" d="M11.375 5.9585C11.375 5.06103 12.1025 4.3335 13 4.3335C13.8974 4.3335 14.625 5.06103 14.625 5.9585C14.625 6.76368 14.0394 7.43209 13.2708 7.56103V8.66683L15.1666 8.66683C17.8945 8.66683 20.1942 10.4999 20.9011 13.0015C21.328 13.0258 21.6666 13.3797 21.6666 13.8127V15.9793C21.6666 16.4281 21.3029 16.7918 20.8541 16.7918C20.8095 16.7918 20.7656 16.7882 20.7229 16.7813C19.8589 19.0062 17.697 20.5835 15.1666 20.5835H10.8333C8.303 20.5835 6.14107 19.0062 5.27706 16.7813C5.23433 16.7882 5.1905 16.7918 5.14581 16.7918C4.69708 16.7918 4.33331 16.4281 4.33331 15.9793V13.8127C4.33331 13.3797 4.67199 13.0258 5.09889 13.0015C5.80579 10.4999 8.10548 8.66683 10.8333 8.66683L12.7291 8.66683V7.56103C11.9606 7.43209 11.375 6.76368 11.375 5.9585ZM10.8333 10.8335C8.73923 10.8335 7.04165 12.5311 7.04165 14.6252C7.04165 16.7192 8.73923 18.4168 10.8333 18.4168H15.1666C17.2607 18.4168 18.9583 16.7192 18.9583 14.6252C18.9583 12.5311 17.2607 10.8335 15.1666 10.8335H10.8333ZM9.20831 14.6252C9.20831 14.0269 9.69334 13.5418 10.2916 13.5418C10.89 13.5418 11.375 14.0269 11.375 14.6252C11.375 15.2235 10.89 15.7085 10.2916 15.7085C9.69334 15.7085 9.20831 15.2235 9.20831 14.6252ZM15.7083 13.5418C15.11 13.5418 14.625 14.0269 14.625 14.6252C14.625 15.2235 15.11 15.7085 15.7083 15.7085C16.3066 15.7085 16.7916 15.2235 16.7916 14.6252C16.7916 14.0269 16.3066 13.5418 15.7083 13.5418Z" fill="white"/>
<defs>
<radialGradient id="paint0_angular_3597_19102" cx="0" cy="0" r="1" gradientUnits="userSpaceOnUse" gradientTransform="translate(13 13) rotate(90) scale(13)">
<stop offset="0.223958" stop-color="#6210CC"/>
<stop offset="0.489583" stop-color="#6210CC"/>
<stop offset="0.951802" stop-color="#4DCD90"/>
</radialGradient>
</defs>
</svg>
